<svg xmlns="http://www.w3.org/2000/svg" viewBox="0 0 400 400">
  <defs>
    <linearGradient id="bg4" x1="0" y1="0" x2="1" y2="1">
      <stop offset="0%" stop-color="#FFFDE7"/>
      <stop offset="100%" stop-color="#FFF9C4"/>
    </linearGradient>
  </defs>
  <rect width="400" height="400" fill="url(#bg4)"/>
  <g transform="translate(200,210)">
    <path d="M -60 -50 Q -80 30 -40 60 Q 0 80 40 60 Q 80 30 60 -50 Q 30 -65 0 -60 Q -30 -65 -60 -50 Z" fill="#FDD835"/>
    <path d="M -55 -45 Q -75 25 -38 55 Q 0 75 38 55 Q 75 25 55 -45" fill="none" stroke="#F9A825" stroke-width="2"/>
    <path d="M -10 -58 L 0 -75 L 10 -58" fill="#558B2F"/>
    <circle cx="-20" cy="10" r="2" fill="#9E7B0A" opacity="0.5"/>
    <circle cx="15" cy="-5" r="2" fill="#9E7B0A" opacity="0.5"/>
    <circle cx="5" cy="25" r="2" fill="#9E7B0A" opacity="0.5"/>
  </g>
  <text x="200" y="370" font-family="sans-serif" font-size="22" font-weight="bold" fill="#F57F17" text-anchor="middle">海南香蕉</text>
</svg>
