<svg xmlns="http://www.w3.org/2000/svg" viewBox="0 0 400 400">
  <defs>
    <linearGradient id="bg13" x1="0" y1="0" x2="1" y2="1">
      <stop offset="0%" stop-color="#FFEBEE"/>
      <stop offset="100%" stop-color="#FFCDD2"/>
    </linearGradient>
  </defs>
  <rect width="400" height="400" fill="url(#bg13)"/>
  <g transform="translate(200,210)">
    <path d="M -10 -70 Q -20 -65 -25 -50 Q -50 20 -30 60 Q -10 80 20 70 Q 50 50 55 10 Q 50 -30 30 -55 Q 10 -70 -10 -70 Z" fill="#D32F2F"/>
    <path d="M -8 -65 Q -18 -60 -22 -45 Q -45 15 -28 55" fill="none" stroke="#B71C1C" stroke-width="2"/>
    <path d="M -10 -70 L -15 -85 L 0 -75 L 5 -90 L 12 -75 L 20 -85 L 18 -70 Z" fill="#388E3C"/>
    <ellipse cx="10" cy="20" rx="4" ry="6" fill="#FFCDD2" opacity="0.7"/>
    <ellipse cx="-5" cy="40" rx="3" ry="5" fill="#FFCDD2" opacity="0.7"/>
  </g>
  <text x="200" y="370" font-family="sans-serif" font-size="22" font-weight="bold" fill="#B71C1C" text-anchor="middle">小米辣</text>
</svg>
